<mxfile host="app.diagrams.net" modified="2024-03-11T20:54:32.980Z" agent="Mozilla/5.0 (Windows NT 10.0; Win64; x64) AppleWebKit/537.36 (KHTML, like Gecko) Chrome/122.0.0.0 Safari/537.36 Edg/122.0.0.0" version="24.0.5" etag="oOBaJxI7geISYd3BsL0O" type="github">
  <diagram name="PÃ¡gina-1" id="artUHE1_4C1jZGPIrjeH">
    <mxGraphModel>
      <root>
        <mxCell id="0" />
        <mxCell id="1" parent="0" />
      </root>
    </mxGraphModel>
  </diagram>
</mxfile>
